<svg xmlns="http://www.w3.org/2000/svg" width="960" height="560"><path fill-rule="evenodd" clip-rule="evenodd" fill="#000005" d="M238.943 290.211a30.847 30.847 0 01-2.945.008c-.323-.367-.637-.711-.936-1.066l-19.342-23.022c-.233-.278-.462-.562-.703-.833-.13-.146-.252-.381-.476-.317-.339.095-.204.423-.232.659-.025.205-.007.414-.007.623v45.961c0 .26.015.52.002.779-.023.473.21.777.6 1.002.314.182.614.389.927.574 4.608 2.723 9.539 4.545 14.831 5.406 3.143.512 6.301.707 9.468.48 9.07-.646 17.164-3.818 24.223-9.57 3.904-3.182 7.116-6.965 9.668-11.307.184-.314.354-.637.553-.939.111-.17.27-.307.385-.434 1.591-.09 5.107-.076 6.268.021.039.094.117.189.109.279-.012.15-.059.305-.127.441-4.113 8.346-10.007 15.113-17.878 20.117-5.231 3.326-10.909 5.531-16.994 6.684-3.173.602-6.381.807-9.609.771-7.234-.076-14.079-1.754-20.574-4.914-.373-.182-.741-.373-1.115-.555-.5-.244-.718-.148-.719.34-.007 2.441-.006 4.881-.001 7.322 0 .15.056.301.081.43.343.389.81.508 1.234.689a54.961 54.961 0 009.618 3.096 55.358 55.358 0 0015.632 1.244c8.466-.531 16.456-2.787 23.867-6.945 11.216-6.293 19.31-15.408 24.396-27.207.951-2.205.434-1.834 2.765-1.869 1.143-.016 2.285-.006 3.428.002.204.002.413.029.609.082.076.02.178.146.173.219-.014.203-.054.41-.123.602-6.915 19.098-21.979 32.635-39.547 38.277a62.887 62.887 0 01-10.924 2.445c-3.042.404-6.103.508-9.17.473-7.079-.082-13.922-1.408-20.559-3.852a11.222 11.222 0 00-1.183-.348c-.061-.016-.209.086-.222.152-.051.25-.086.508-.087.764-.007 1.662-.004 3.324-.005 4.984 0 .416.001.832-.011 1.246-.015.494-.188.703-.626.705-1.61.008-3.219.002-4.829-.004a.598.598 0 01-.296-.078c-.082-.049-.186-.137-.197-.219a8.31 8.31 0 01-.092-1.078c-.007-2.648-.003-5.297-.006-7.945 0-.416-.007-.832-.032-1.246a.64.64 0 00-.316-.508c-.399-.244-.805-.475-1.209-.707-10.095-5.82-17.979-13.822-23.634-24.008-3.227-5.811-5.416-12.004-6.644-18.533a60.55 60.55 0 01-.922-15.201c.834-12.736 5.099-24.217 12.958-34.287 8.308-10.645 18.994-17.846 31.965-21.628 2.793-.815 5.64-1.378 8.523-1.79 4.183-.6 8.383-.73 12.587-.463a61.092 61.092 0 0120.06 4.727 62.214 62.214 0 0135.559 39.959 61.477 61.477 0 012.066 10.527c.424 3.887.409 7.775.186 11.668-.065 1.139-.224 2.273-.355 3.408a4.312 4.312 0 01-.206.906c-.042.123-.193.271-.314.293a5.22 5.22 0 01-.928.063c-1.609.004-3.22.002-4.83.002h-23.838c-.467 0-.935-.004-1.401.008-.678.016-.81.141-.814.826-.01 1.662-.007 3.324-.007 4.986 0 2.076.002 4.154-.002 6.232 0 .363-.023.725-.042 1.088-.008.158-.251.379-.424.4-.051.004-.102.023-.152.023-1.61 0-3.218 0-4.828-.006a.564.564 0 01-.292-.084c-.083-.053-.184-.146-.192-.23a12.544 12.544 0 01-.078-1.24c-.004-5.506-.004-11.01-.001-16.516.001-.363.024-.727.044-1.088.008-.146.27-.389.43-.395.57-.02 1.141-.043 1.711-.043 9.452-.004 18.904-.002 28.356-.004.57 0 1.142-.018 1.712-.037a.578.578 0 00.521-.488c.024-.26.051-.518.056-.777.042-2.544.025-5.082-.219-7.624a55.38 55.38 0 00-6.14-20.608c-7.066-13.468-19.808-24.368-36.269-28.467a51.989 51.989 0 00-8.906-1.427c-1.503-.105-3.003-.218-4.511-.206-11.762.096-22.53 3.396-32.142 10.192-10.955 7.747-18.273 18.12-21.926 31.049-.962 3.405-1.551 6.879-1.826 10.411-.162 2.074-.256 4.148-.171 6.226.498 12.202 4.435 23.159 11.957 32.8 3.737 4.791 8.16 8.848 13.226 12.201.389.258.794.49 1.195.727.171.102.414-.061.431-.275.009-.105.025-.209.025-.311l.004-7.635c0-.105-.002-.209-.011-.313-.023-.266-.102-.504-.321-.68a80.736 80.736 0 01-.97-.781c-7.924-6.541-13.312-14.742-16.094-24.641-.731-2.602-1.198-5.254-1.484-7.947a47.034 47.034 0 01-.157-8.09 48.12 48.12 0 015.519-19.479c5.522-10.458 15.933-20.604 31.391-24.389 4.776-1.17 9.636-1.598 14.533-1.237 11.96.88 22.281 5.483 30.843 13.903 6.329 6.223 10.574 13.674 12.818 22.262.526 2.012.931 4.047 1.153 6.115.055.514.113 1.027.167 1.542.011.108-.17.311-.287.316-.415.022-.829.054-1.243.054-3.064.004-6.128.002-9.192.002-4.102 0-8.205.002-12.309-.001-.467 0-.934-.014-1.4-.03a.522.522 0 01-.486-.504 38.503 38.503 0 01-.028-1.4c-.003-2.129.002-4.259-.007-6.389a3.197 3.197 0 00-.114-.75.149.149 0 00-.253-.072c-.259.248-.519.5-.75.775a9348.22 9348.22 0 00-9.523 11.329c-3.373 4.017-6.745 8.034-10.12 12.05-.305.359-.625.695-.978 1.09zm27.608-35.335c.219.567.14 1.093.141 1.606.007 3.221.003 6.439.004 9.66 0 .416-.002.831.012 1.246.005.153.031.313.086.455a.395.395 0 00.216.207c.144.049.305.068.458.068 3.428.005 6.855.006 10.283.004.154 0 .308-.033.462-.047.116-.011.296-.221.269-.328-.14-.553-.264-1.109-.43-1.654-2.874-9.43-8.375-16.967-16.421-22.635-5.71-4.023-12.07-6.432-18.993-7.303-2.835-.357-5.685-.442-8.549-.178-2.959.275-5.858.789-8.706 1.629-16.391 4.838-29.771 20.02-30.268 39.75-.076 3.021.224 6.014.809 8.979 1.634 8.279 5.445 15.41 11.302 21.463.18.186.373.361.578.516.063.049.188.025.283.014.032-.006.077-.076.08-.117.03-.516.074-1.031.074-1.547.004-10.699.003-21.396.003-32.096 0-5.973-.002-11.944.003-17.918 0-.568-.062-1.143.087-1.72.119-.085.232-.21.372-.259 1.373-.473 2.75-.936 4.129-1.391a.536.536 0 01.569.156c.214.226.416.463.617.702 4.378 5.206 8.755 10.415 13.133 15.622 3.141 3.736 6.282 7.474 9.426 11.207.233.277.485.539.747.789.052.051.23.055.281.006.264-.246.519-.506.751-.781 6.121-7.27 12.239-14.543 18.358-21.814 1.571-1.867 3.142-3.735 4.718-5.6.197-.232.365-.516.792-.547 1.43.585 2.917 1.186 4.324 1.856z"/><g fill="#000005"><path d="M382.378 284.375l-20.074-39.736v31.553c0 2.902.345 4.713 1.034 5.434.945.975 2.439 1.463 4.482 1.463h1.839v1.287h-18.082v-1.287h1.839c2.196 0 3.754-.604 4.674-1.813.561-.742.843-2.438.843-5.084v-30.856c0-2.09-.256-3.599-.767-4.528-.358-.672-1.015-1.236-1.973-1.688-.958-.452-2.497-.679-4.616-.679v-1.289h14.711l18.848 36.951 18.542-36.951h14.711v1.289h-1.8c-2.222 0-3.793.604-4.712 1.811-.562.744-.843 2.438-.843 5.085v30.856c0 2.902.357 4.713 1.073 5.434.944.975 2.438 1.463 4.482 1.463h1.8v1.287h-22.066v-1.287h1.839c2.222 0 3.779-.604 4.674-1.813.562-.742.843-2.438.843-5.084V244.64l-20.036 39.736h-1.265zm63.471-44.647v18.667h11.417c2.962 0 4.942-.405 5.938-1.219 1.328-1.067 2.069-2.948 2.222-5.642h1.417v16.438h-1.417c-.358-2.299-.715-3.773-1.072-4.424-.46-.813-1.213-1.45-2.26-1.915-1.048-.464-2.657-.696-4.827-.696H445.85v15.567c0 2.09.102 3.36.307 3.813.204.453.562.813 1.073 1.08.51.268 1.481.4 2.912.4h8.811c2.937 0 5.069-.186 6.398-.557 1.328-.371 2.605-1.104 3.831-2.195 1.583-1.439 3.205-3.609 4.866-6.512h1.532l-4.482 11.84h-40.034v-1.287h1.839a7.858 7.858 0 003.486-.803c.817-.371 1.373-.928 1.667-1.67.293-.743.44-2.264.44-4.563v-30.684c0-2.994-.332-4.84-.996-5.537-.919-.928-2.452-1.393-4.597-1.393h-1.839v-1.289h40.034l.575 10.344h-1.494c-.536-2.484-1.13-4.191-1.781-5.119-.651-.929-1.616-1.637-2.893-2.125-1.021-.348-2.822-.522-5.401-.522h-14.255zm57.34 0v18.667h11.417c2.962 0 4.941-.405 5.938-1.219 1.328-1.067 2.068-2.948 2.222-5.642h1.417v16.438h-1.417c-.358-2.299-.715-3.773-1.072-4.424-.46-.813-1.214-1.45-2.261-1.915-1.047-.464-2.656-.696-4.826-.696H503.19v15.567c0 2.09.103 3.36.307 3.813s.562.813 1.073 1.08c.51.268 1.48.4 2.911.4h8.812c2.936 0 5.068-.186 6.397-.557 1.327-.371 2.604-1.104 3.831-2.195 1.583-1.439 3.205-3.609 4.865-6.512h1.532l-4.482 11.84h-40.034v-1.287h1.84a7.86 7.86 0 003.486-.803c.816-.371 1.372-.928 1.666-1.67.293-.743.44-2.264.44-4.563v-30.684c0-2.994-.332-4.84-.996-5.537-.919-.928-2.452-1.393-4.597-1.393h-1.84v-1.289h40.034l.575 10.344h-1.494c-.537-2.484-1.131-4.191-1.781-5.119-.652-.929-1.616-1.637-2.893-2.125-1.021-.348-2.822-.522-5.402-.522h-14.251zm64.39 18.458l19.155 17.31c3.142 2.856 5.823 4.8 8.045 5.833s4.444 1.619 6.666 1.76v1.287h-24.71v-1.287c1.48 0 2.548-.227 3.199-.68.65-.453.977-.957.977-1.516a3.06 3.06 0 00-.363-1.497c-.244-.44-1.041-1.265-2.395-2.473l-17.93-16.125v15.22c0 2.392.166 3.971.498 4.736.256.58.791 1.08 1.609 1.498a7.603 7.603 0 003.486.836h1.762v1.287h-22.143v-1.287h1.839c2.146 0 3.702-.57 4.674-1.707.612-.742.919-2.53.919-5.363v-30.509c0-2.392-.166-3.981-.498-4.771-.256-.558-.779-1.045-1.57-1.463a7.828 7.828 0 00-3.524-.836h-1.839v-1.289h22.143v1.289h-1.762a8.028 8.028 0 00-3.486.801c-.792.371-1.341.929-1.647 1.672s-.46 2.275-.46 4.597v14.454c.511-.441 2.261-1.916 5.248-4.424 7.586-6.314 12.17-10.529 13.754-12.643.689-.928 1.034-1.74 1.034-2.438 0-.533-.269-1.004-.804-1.41-.537-.406-1.443-.609-2.721-.609h-1.188v-1.289h19.078v1.289c-1.124.023-2.145.162-3.064.418s-2.044.748-3.371 1.479c-1.328.731-2.963 1.91-4.904 3.535-.563.465-3.154 2.845-7.777 7.14l-7.93 7.175zm66.842 24.902v1.287h-22.258v-1.287h1.838c2.146 0 3.703-.57 4.674-1.707.613-.742.92-2.53.92-5.363v-30.509c0-2.392-.166-3.97-.498-4.736-.256-.58-.779-1.079-1.57-1.497a7.832 7.832 0 00-3.525-.836h-1.838v-1.289h22.258v1.289h-1.877c-2.121 0-3.666.568-4.636 1.706-.639.743-.958 2.531-.958 5.363v30.509c0 2.392.166 3.971.498 4.736.256.58.791 1.08 1.609 1.498a7.603 7.603 0 003.486.836h1.877zm56.307-11.772l1.264.243-4.443 12.815h-40.226v-1.287h1.954c2.195 0 3.767-.65 4.712-1.951.536-.742.804-2.461.804-5.154v-30.474c0-2.948-.357-4.794-1.072-5.537-.996-1.021-2.478-1.532-4.443-1.532h-1.954v-1.289h23.522v1.289c-2.759-.023-4.693.209-5.805.696-1.11.487-1.871 1.103-2.279 1.846s-.613 2.52-.613 5.329v29.672c0 1.928.205 3.251.613 3.971.307.486.779.848 1.418 1.08.638.232 2.63.348 5.977.348h3.792c3.984 0 6.781-.268 8.39-.801 1.609-.535 3.078-1.48 4.406-2.839s2.654-3.5 3.983-6.425zm57.339 0l1.264.243-4.443 12.815h-40.225v-1.287h1.953c2.196 0 3.768-.65 4.713-1.951.535-.742.804-2.461.804-5.154v-30.474c0-2.948-.358-4.794-1.073-5.537-.996-1.021-2.477-1.532-4.443-1.532h-1.953v-1.289h23.521v1.289c-2.758-.023-4.693.209-5.804.696s-1.871 1.103-2.279 1.846c-.409.743-.613 2.52-.613 5.329v29.672c0 1.928.204 3.251.613 3.971.306.486.778.848 1.417 1.08s2.631.348 5.977.348h3.793c3.984 0 6.781-.268 8.39-.801 1.608-.535 3.077-1.48 4.405-2.839s2.655-3.5 3.983-6.425zm36.578 11.772v1.287h-22.259v-1.287h1.84c2.145 0 3.703-.57 4.674-1.707.613-.742.919-2.53.919-5.363v-30.509c0-2.392-.166-3.97-.498-4.736-.255-.58-.779-1.079-1.57-1.497a7.828 7.828 0 00-3.524-.836h-1.84v-1.289h22.259v1.289h-1.878c-2.119 0-3.664.568-4.635 1.706-.639.743-.958 2.531-.958 5.363v30.509c0 2.392.166 3.971.498 4.736.255.58.792 1.08 1.609 1.498a7.605 7.605 0 003.485.836h1.878zM455.504 315.746h-8.459l-1.482 3.135c-.365.771-.548 1.348-.548 1.729 0 .303.158.568.476.799.316.229 1.001.377 2.054.445v.543h-6.88v-.543c.913-.146 1.504-.336 1.772-.57.548-.469 1.155-1.422 1.821-2.857l7.686-16.348h.564l7.605 16.523c.612 1.328 1.168 2.191 1.667 2.586.5.396 1.195.617 2.087.666v.543h-8.621v-.543c.87-.039 1.458-.17 1.764-.395.307-.225.459-.498.459-.82 0-.43-.215-1.109-.645-2.037l-1.32-2.856zm-.451-1.084l-3.706-8.027-3.803 8.027h7.509zm33.012-12.584l.5 6.754h-.5c-.666-2.021-1.617-3.477-2.852-4.365-1.235-.889-2.718-1.334-4.447-1.334-1.451 0-2.761.336-3.932 1.004-1.171.67-2.092 1.736-2.764 3.201s-1.007 3.285-1.007 5.463c0 1.797.317 3.355.951 4.674s1.587 2.328 2.86 3.031c1.273.703 2.726 1.055 4.359 1.055 1.418 0 2.67-.275 3.755-.826 1.085-.553 2.276-1.648 3.577-3.289l.499.293c-1.096 1.768-2.374 3.061-3.835 3.881s-3.195 1.23-5.204 1.23c-3.621 0-6.424-1.221-8.412-3.662-1.482-1.816-2.224-3.955-2.224-6.416 0-1.982.489-3.803 1.466-5.463s2.323-2.947 4.037-3.859c1.713-.914 3.585-1.371 5.616-1.371 1.579 0 3.137.352 4.673 1.055.451.215.772.322.966.322.291 0 .543-.092.758-.277.279-.264.479-.631.596-1.1h.564zm25.971 0l.5 6.754h-.5c-.666-2.021-1.617-3.477-2.852-4.365-1.236-.889-2.719-1.334-4.447-1.334-1.451 0-2.762.336-3.932 1.004-1.172.67-2.093 1.736-2.764 3.201-.672 1.465-1.008 3.285-1.008 5.463 0 1.797.317 3.355.951 4.674s1.588 2.328 2.859 3.031c1.273.703 2.727 1.055 4.359 1.055 1.418 0 2.67-.275 3.754-.826 1.086-.553 2.277-1.648 3.578-3.289l.499.293c-1.096 1.768-2.374 3.061-3.835 3.881s-3.195 1.23-5.205 1.23c-3.619 0-6.424-1.221-8.41-3.662-1.482-1.816-2.225-3.955-2.225-6.416 0-1.982.489-3.803 1.467-5.463s2.322-2.947 4.037-3.859c1.713-.914 3.584-1.371 5.615-1.371 1.578 0 3.137.352 4.672 1.055.451.215.773.322.967.322.291 0 .543-.092.758-.277.279-.264.479-.631.596-1.1h.566zm13 1.539v7.852h4.801c1.246 0 2.079-.172 2.498-.514.559-.449.87-1.24.935-2.373h.597v6.914h-.597c-.15-.967-.301-1.586-.451-1.859-.193-.342-.511-.611-.95-.807-.441-.195-1.117-.293-2.031-.293h-4.801v6.549c0 .879.043 1.414.129 1.604a.96.96 0 00.451.455c.215.111.623.168 1.225.168h3.705c1.236 0 2.133-.078 2.691-.234s1.096-.465 1.611-.924c.666-.605 1.348-1.518 2.047-2.738h.645l-1.886 4.98h-16.839v-.543h.773c.516 0 1.005-.111 1.467-.336.344-.156.577-.391.701-.703.123-.313.186-.953.186-1.92V305.99c0-1.26-.141-2.037-.42-2.33-.387-.391-1.031-.586-1.934-.586h-.773v-.541h16.839l.241 4.35h-.628c-.226-1.045-.476-1.762-.749-2.152s-.68-.689-1.217-.895c-.43-.146-1.188-.219-2.271-.219h-5.995zm32.352-1.539v6.871h-.597c-.193-1.318-.54-2.369-1.039-3.15-.5-.781-1.212-1.4-2.136-1.859s-1.879-.689-2.867-.689c-1.117 0-2.041.311-2.771.932-.73.619-1.096 1.324-1.096 2.115 0 .605.23 1.158.692 1.656.666.732 2.251 1.709 4.753 2.93 2.041.996 3.436 1.76 4.182 2.293.746.531 1.321 1.158 1.725 1.881a4.61 4.61 0 01.604 2.271c0 1.504-.642 2.801-1.925 3.889-1.284 1.09-2.936 1.633-4.955 1.633-.634 0-1.229-.043-1.788-.131-.334-.049-1.023-.227-2.071-.535-1.047-.307-1.71-.461-1.989-.461-.27 0-.481.072-.637.219-.156.146-.271.449-.347.908h-.597v-6.811h.597c.279 1.426.655 2.492 1.128 3.201.473.707 1.195 1.295 2.167 1.764s2.038.703 3.198.703c1.344 0 2.404-.322 3.183-.967s1.169-1.406 1.169-2.285c0-.488-.148-.98-.443-1.479-.296-.498-.755-.963-1.378-1.393-.419-.293-1.563-.914-3.433-1.867-1.869-.951-3.198-1.711-3.987-2.277-.79-.566-1.389-1.191-1.797-1.875s-.612-1.436-.612-2.256c0-1.426.602-2.654 1.805-3.684 1.203-1.031 2.734-1.547 4.592-1.547 1.16 0 2.391.26 3.69.777.602.244 1.026.365 1.272.365.279 0 .508-.074.686-.227.177-.15.319-.457.427-.916h.595zm22.312 0v6.871h-.596c-.193-1.318-.541-2.369-1.039-3.15-.5-.781-1.212-1.4-2.136-1.859s-1.88-.689-2.868-.689c-1.117 0-2.041.311-2.771.932-.73.619-1.096 1.324-1.096 2.115 0 .605.23 1.158.693 1.656.666.732 2.25 1.709 4.753 2.93 2.041.996 3.435 1.76 4.181 2.293.747.531 1.322 1.158 1.725 1.881s.604 1.48.604 2.271c0 1.504-.642 2.801-1.925 3.889-1.285 1.09-2.936 1.633-4.955 1.633-.635 0-1.23-.043-1.789-.131-.333-.049-1.023-.227-2.07-.535-1.047-.307-1.711-.461-1.99-.461-.269 0-.48.072-.637.219s-.271.449-.346.908h-.597v-6.811h.597c.279 1.426.654 2.492 1.127 3.201.473.707 1.195 1.295 2.168 1.764.972.469 2.038.703 3.198.703 1.343 0 2.403-.322 3.183-.967.778-.645 1.168-1.406 1.168-2.285 0-.488-.148-.98-.443-1.479s-.754-.963-1.377-1.393c-.42-.293-1.563-.914-3.433-1.867-1.869-.951-3.198-1.711-3.987-2.277-.791-.566-1.389-1.191-1.797-1.875s-.613-1.436-.613-2.256c0-1.426.602-2.654 1.805-3.684 1.203-1.031 2.734-1.547 4.593-1.547 1.16 0 2.39.26 3.69.777.602.244 1.025.365 1.272.365.279 0 .507-.074.685-.227.178-.15.32-.457.428-.916h.595zm19.252 0c2.836 0 5.293.98 7.371 2.938 2.079 1.959 3.118 4.402 3.118 7.332 0 3.018-1.048 5.521-3.142 7.514-2.096 1.992-4.631 2.988-7.605 2.988-3.008 0-5.535-.971-7.582-2.914-2.046-1.943-3.069-4.459-3.069-7.545 0-3.154 1.182-5.727 3.545-7.719 2.052-1.729 4.507-2.594 7.364-2.594zm-.306 1.07c-1.955 0-3.523.658-4.705 1.977-1.472 1.641-2.207 4.043-2.207 7.207 0 3.242.762 5.738 2.287 7.486 1.172 1.328 2.719 1.992 4.641 1.992 2.053 0 3.747-.729 5.084-2.184 1.338-1.455 2.006-3.75 2.006-6.885 0-3.398-.735-5.932-2.207-7.602-1.183-1.326-2.816-1.991-4.899-1.991zm26.212 18.706v.543h-9.361v-.543h.773c.902 0 1.557-.238 1.965-.717.258-.313.387-1.064.387-2.256v-12.832c0-1.006-.069-1.67-.209-1.992-.107-.244-.328-.455-.66-.631a3.303 3.303 0 00-1.482-.352h-.773v-.541h9.361v.541h-.789c-.893 0-1.542.24-1.95.719-.269.313-.403 1.064-.403 2.256v12.832c0 1.006.07 1.67.21 1.992.107.244.333.453.677.629.462.234.951.352 1.467.352h.787zm27.067.542h-5.833l-7.396-9.287c-.549.02-.994.029-1.338.029a18.408 18.408 0 01-.951-.029v5.771c0 1.25.15 2.025.451 2.328.408.43 1.021.645 1.838.645h.854v.543h-9.361v-.543h.821c.924 0 1.585-.273 1.981-.82.227-.303.339-1.02.339-2.152v-12.832c0-1.25-.15-2.027-.451-2.33-.419-.43-1.042-.645-1.869-.645h-.821v-.541h7.959c2.32 0 4.031.154 5.133.461a5.965 5.965 0 012.804 1.699c.768.826 1.151 1.809 1.151 2.951 0 1.221-.438 2.281-1.313 3.18-.876.898-2.232 1.533-4.068 1.904l4.512 5.697c1.031 1.309 1.917 2.178 2.658 2.607s1.708.703 2.9.82v.544zm-15.518-10.21c.205 0 .382.004.532.008.15.006.274.008.37.008 2.084 0 3.655-.41 4.714-1.23 1.058-.82 1.587-1.865 1.587-3.135 0-1.24-.427-2.248-1.281-3.025-.854-.775-1.984-1.164-3.392-1.164-.623 0-1.466.092-2.53.277v8.261zm26.084-8.569v7.852h4.802c1.246 0 2.079-.172 2.497-.514.559-.449.871-1.24.936-2.373h.596v6.914h-.596c-.15-.967-.301-1.586-.451-1.859-.193-.342-.511-.611-.951-.807s-1.117-.293-2.03-.293h-4.802v6.549c0 .879.043 1.414.129 1.604a.96.96 0 00.451.455c.215.111.623.168 1.225.168h3.706c1.235 0 2.132-.078 2.69-.234s1.096-.465 1.611-.924c.666-.605 1.349-1.518 2.047-2.738h.645l-1.885 4.98h-16.839v-.543h.773a3.3 3.3 0 001.466-.336c.344-.156.578-.391.701-.703s.186-.953.186-1.92V305.99c0-1.26-.14-2.037-.419-2.33-.387-.391-1.031-.586-1.934-.586h-.773v-.541h16.839l.241 4.35h-.628c-.227-1.045-.476-1.762-.75-2.152-.273-.391-.68-.689-1.217-.895-.43-.146-1.187-.219-2.271-.219h-5.995zm32.352-1.539v6.871h-.596c-.193-1.318-.541-2.369-1.039-3.15-.5-.781-1.212-1.4-2.136-1.859s-1.88-.689-2.868-.689c-1.117 0-2.041.311-2.771.932-.73.619-1.096 1.324-1.096 2.115 0 .605.23 1.158.693 1.656.666.732 2.25 1.709 4.753 2.93 2.041.996 3.435 1.76 4.181 2.293.747.531 1.322 1.158 1.725 1.881s.604 1.48.604 2.271c0 1.504-.642 2.801-1.925 3.889-1.285 1.09-2.936 1.633-4.955 1.633-.635 0-1.23-.043-1.789-.131-.333-.049-1.023-.227-2.07-.535-1.047-.307-1.711-.461-1.99-.461-.269 0-.48.072-.637.219s-.271.449-.346.908h-.597v-6.811h.597c.279 1.426.654 2.492 1.127 3.201.473.707 1.195 1.295 2.168 1.764.972.469 2.038.703 3.198.703 1.343 0 2.403-.322 3.183-.967.778-.645 1.168-1.406 1.168-2.285 0-.488-.148-.98-.443-1.479s-.754-.963-1.377-1.393c-.42-.293-1.563-.914-3.433-1.867-1.869-.951-3.198-1.711-3.987-2.277-.791-.566-1.389-1.191-1.797-1.875s-.613-1.436-.613-2.256c0-1.426.602-2.654 1.805-3.684 1.203-1.031 2.734-1.547 4.593-1.547 1.16 0 2.39.26 3.69.777.602.244 1.025.365 1.272.365.279 0 .507-.074.685-.227.178-.15.32-.457.428-.916h.595z"/></g></svg>
