<svg xmlns="http://www.w3.org/2000/svg" xmlns:xlink="http://www.w3.org/1999/xlink" viewBox="0 0 272.63 80.26"><defs><linearGradient id="a" x1="287.58" y1="249.04" x2="287.58" y2="213.69" gradientUnits="userSpaceOnUse"><stop offset="0" stop-color="#0051d8"/><stop offset="1" stop-color="#3db2ff"/></linearGradient><linearGradient id="b" x1="15.55" y1="80.26" x2="15.55" y2="55.1" xlink:href="#a"/><linearGradient id="c" x1="49.93" y1="70.45" x2="49.93" y2="35" xlink:href="#a"/><linearGradient id="d" x1="49.93" y1="35.23" x2="49.93" y2="0" xlink:href="#a"/><linearGradient id="e" x1="15.55" y1="54.91" x2="15.55" y2="29.56" xlink:href="#a"/></defs><g data-name="OBJECTS"><g fill="url(#a)"><path d="M85.5 44.83V9.52h3.79l8.84 21.86V9.52h5.05v35.31h-3.59l-9-23.51v23.51zM108.5 44.83V9.52h5.05v35.31zM118.95 44.83V9.52h3.79l8.84 21.86V9.52h5v35.31h-3.59l-9-23.51v23.51zM139.15 44.83v-3.79a15.32 15.32 0 002.56-.17 2.74 2.74 0 002.29-2.28 12.65 12.65 0 00.2-2.6V9.52h5.05v26.51a20.84 20.84 0 01-.31 4 6.78 6.78 0 01-1.16 2.71 4.66 4.66 0 01-2.33 1.65 12.12 12.12 0 01-3.77.5zM152.03 44.83l7.58-35.35h5.05l7.57 35.35h-5.05l-1.89-8.84h-6.31l-1.9 8.84zm7.58-12.62h5.05l-2.53-15.16zM181.07 44.83l7.58-35.35h5.05l7.57 35.35h-5l-1.89-8.84h-6.31l-1.9 8.84zm7.58-12.62h5.05l-2.53-15.16zM204.11 44.83V9.52h6.32q5.64 0 8.5 2.19t2.86 7.28a11.28 11.28 0 01-1.13 5.29 5.86 5.86 0 01-3.29 2.91l5.68 17.64h-5l-5.09-16.41h-3.79v16.41zm5.05-20.2h1.27a7.18 7.18 0 004.73-1.33 6.78 6.78 0 000-8.7 7.18 7.18 0 00-4.73-1.33h-1.27zM225.97 44.83V9.52h7l5 27.06 5-27.06h7v35.31h-5V16.98l-5.11 27.85h-3.79l-5.05-27.89v27.89zM260 44.83V33.51l-7.58-24h5.08l5 17.67 5.05-17.67h5.05l-7.58 24v11.32z"/></g><text transform="translate(85.01 64.26)" font-size="13.2" fill="#0051d8" font-family="Oswald-Regular, Oswald" letter-spacing=".2em">JUST NIN<tspan x="67.2" y="0">J</tspan><tspan x="73.94" y="0">A MOVES</tspan></text><g><path fill="url(#b)" d="M25.35 80.27L0 54.91l25.35-25.35 5.76 5.76-19.6 19.59 19.6 19.6-5.76 5.76z"/><path fill="url(#c)" d="M35.19 70.45l-5.75-5.75 29.47-29.47L29.44 5.75 35.19 0l35.23 35.23-35.23 35.22z"/><path fill="url(#d)" d="M70.42 35.23H58.91L29.44 5.75 35.19 0l35.23 35.23z"/><path fill="url(#e)" d="M11.51 54.91H0l25.35-25.35 5.76 5.76-19.6 19.59z"/></g></g></svg>